<svg width="512" height="512" viewBox="0 0 512 512" fill="none" xmlns="http://www.w3.org/2000/svg">
<rect width="512" height="512" rx="103" fill="#FED501"/>
<path d="M106.48 225.333H131.029V217.973C131.029 198.347 147.396 187.797 163.514 187.797C179.632 187.797 195.751 198.347 195.751 217.973C195.751 232.693 187.072 242.507 178.392 251.093C149.875 279.552 105.488 319.541 104 321.013V345.547H218.068V321.259H134.997C136.485 319.787 165.994 295.253 195.751 265.813C206.166 255.509 220.548 240.053 220.548 217.973C220.548 183.627 193.271 164 163.514 164C133.757 164 106.48 186.08 106.48 217.973V225.333Z" fill="black"/>
<path d="M242.817 345.547H272.574V313.653H242.817V345.547Z" fill="black"/>
<path d="M382.111 256C382.111 270.72 384.343 284.213 383.351 298.933C382.111 316.107 371.696 324.693 353.098 324.693C334.5 324.693 324.085 316.107 322.845 298.933C321.854 284.213 324.085 270.72 324.085 256C324.085 241.28 321.854 227.787 322.845 213.067C324.085 195.893 334.5 187.307 353.098 187.307C371.696 187.307 382.111 195.893 383.351 213.067C384.343 227.787 382.111 241.28 382.111 256ZM299.784 256C299.784 270.72 297.304 286.667 298.544 298.933C301.768 328.128 317.142 348 353.098 348C389.055 348 404.429 328.128 407.653 298.933C408.893 286.667 406.413 270.72 406.413 256C406.413 241.28 408.893 225.333 407.653 213.067C404.429 183.872 389.055 164 353.098 164C317.142 164 301.768 183.872 298.544 213.067C297.304 225.333 299.784 241.28 299.784 256Z" fill="black"/>
</svg>
